<svg width="43" height="43" viewBox="0 0 43 43" fill="none" xmlns="http://www.w3.org/2000/svg">
<rect x="0.5" y="0.5" width="42" height="42" rx="3.5" fill="white" stroke="#C8C8C8"/>
<path d="M13 26.25V30H16.75L27.81 18.94L24.06 15.19L13 26.25ZM30.71 14.63L28.37 12.29C28.2775 12.1973 28.1676 12.1238 28.0466 12.0736C27.9257 12.0234 27.796 11.9976 27.665 11.9976C27.534 11.9976 27.4043 12.0234 27.2834 12.0736C27.1624 12.1238 27.0525 12.1973 26.96 12.29L25.13 14.12L28.88 17.87L30.71 16.04C30.8027 15.9475 30.8762 15.8376 30.9264 15.7166C30.9766 15.5957 31.0024 15.466 31.0024 15.335C31.0024 15.204 30.9766 15.0744 30.9264 14.9534C30.8762 14.8324 30.8027 14.7225 30.71 14.63Z" fill="black"/>
</svg>
