<svg width="15" height="14" viewBox="0 0 15 14" fill="none" xmlns="http://www.w3.org/2000/svg">
<path d="M7.5026 0.333008C11.1845 0.333008 14.1693 3.31777 14.1693 6.99967C14.1693 10.6815 11.1845 13.6663 7.5026 13.6663C3.8207 13.6663 0.835938 10.6815 0.835938 6.99967C0.835938 3.31777 3.8207 0.333008 7.5026 0.333008ZM7.49594 5.66634H6.83594C6.46774 5.66634 6.16927 5.96481 6.16927 6.33301C6.16927 6.67491 6.42662 6.95668 6.75819 6.99519L6.83594 6.99967V10.3263C6.83594 10.6734 7.09849 10.9592 7.43589 10.9957L7.50927 10.9997H7.83594C8.20414 10.9997 8.5026 10.7012 8.5026 10.333C8.5026 10.1137 8.39667 9.91907 8.23318 9.79758L8.16927 9.75554V6.33967C8.16927 5.9926 7.90666 5.70685 7.5693 5.67029L7.49594 5.66634ZM7.5026 3.66634C7.1344 3.66634 6.83594 3.96482 6.83594 4.33301C6.83594 4.70119 7.1344 4.99967 7.5026 4.99967C7.8708 4.99967 8.16927 4.70119 8.16927 4.33301C8.16927 3.96482 7.8708 3.66634 7.5026 3.66634Z" fill="#FBBB00"/>
</svg>
