<svg width="342" height="118" viewBox="0 0 342 118" fill="none" xmlns="http://www.w3.org/2000/svg">
<path d="M46.3376 0.21892C45.8599 0.404988 43.4712 1.05623 41.0826 1.8005C38.6939 2.45174 36.0186 3.56815 35.1587 4.31242C34.2032 5.05669 33.4388 5.42883 33.4388 5.05669C33.4388 4.21939 28.3749 7.47558 27.4194 8.87109C27.0372 9.52233 26.2729 10.0805 25.7951 10.0805C24.9352 10.0805 20.0623 14.4531 20.0623 15.1974C20.0623 15.4765 18.6291 17.6163 16.8138 20.0352C12.8008 25.7103 11.2721 30.8271 10.7943 40.6887C10.4121 47.6663 10.5077 48.4106 11.9409 47.8524C12.8008 47.5732 13.8518 47.2941 14.234 47.2941C14.7117 47.2941 15.285 45.0613 15.5716 42.3633C16.336 36.2231 17.1004 32.3157 17.9603 31.1062C18.3425 30.548 18.6291 29.8968 18.7247 29.6177C19.7757 26.0824 20.4445 24.966 21.3044 24.966C21.8777 24.966 21.9733 24.6869 21.6866 24.3147C21.3044 24.0356 22.1644 22.7332 23.502 21.5237C24.8397 20.4073 25.604 19.3839 25.2218 19.3839C24.8397 19.3839 25.3174 18.5466 26.2729 17.5233C27.2283 16.4999 28.566 15.6626 29.2348 15.6626C29.9036 15.6626 30.5724 15.3835 30.7635 14.9183C31.4324 13.4298 38.1206 9.24323 40.5093 8.77805C41.8469 8.59199 43.4712 8.03378 44.14 7.66165C46.1465 6.4522 61.4339 6.54524 64.7781 7.84771C66.4024 8.49895 67.8356 8.77806 67.8356 8.49895C67.8356 8.21985 68.5044 8.49895 69.2688 9.15019C70.0331 9.80143 70.702 9.9875 70.702 9.7084C70.702 9.15019 77.1036 13.4298 78.3457 14.8253C78.6323 15.1044 79.5878 15.5695 80.5432 15.9417C81.5943 16.3138 81.9764 17.0581 81.5943 17.6163C81.2121 18.2675 81.3076 18.4536 81.9764 18.0815C82.5497 17.8024 83.7918 18.7327 84.6517 20.3143C85.6072 21.8028 86.8493 23.1053 87.327 23.1053C87.8048 23.1053 87.9003 23.3844 87.6137 23.6635C87.2315 24.0356 87.9003 25.5242 88.9513 26.9197C90.0023 28.4082 90.6712 29.6177 90.289 29.6177C90.0023 29.6177 90.1934 30.455 90.7667 31.5714C92.1044 33.8972 92.5821 36.037 93.3465 42.3633C93.8242 46.4568 94.2064 47.2011 96.2129 47.5733C98.506 47.9454 98.506 47.9454 98.3149 40.9678C98.1238 32.9669 95.2574 23.9426 91.34 19.0118C90.0023 17.2442 88.8558 15.5695 88.8558 15.2904C88.8558 14.8253 85.6072 11.7551 81.6898 8.40592C80.9254 7.75468 80.2566 7.56861 80.2566 7.94075C80.2566 8.31289 79.8744 8.21985 79.4922 7.66165C78.7279 6.4522 73.6639 3.75422 68.791 1.89354C65.7335 0.777127 48.5352 -0.525352 46.3376 0.21892Z" fill="white"/>
<path d="M44.9077 16.2207C38.9838 18.2675 30.5757 24.4077 30.5757 26.7336C30.5757 27.1988 30.2891 27.757 29.8114 27.943C26.4672 29.3385 24.5563 48.5036 27.3272 53.6204C28.0915 55.0159 28.6648 56.5975 28.6648 57.0627C28.6648 57.6209 30.0025 59.0164 31.5312 60.3189C33.1555 61.6214 34.3976 63.2029 34.3976 63.8542C34.3976 64.5054 34.8753 64.7845 35.3531 64.5054C35.9263 64.2263 36.3085 64.5054 36.3085 65.1567C36.3085 65.8079 38.5061 68.2268 41.0859 70.6457C43.7612 72.9715 45.8632 74.8322 45.8632 74.6461C45.8632 74.5531 47.4875 76.0416 49.4939 78.0884C52.647 81.1585 53.7935 81.7167 57.1377 81.7167C60.6729 81.7167 61.0551 81.4376 61.6283 79.0187C62.3927 75.2974 61.6283 73.9949 53.3158 66.2731C44.8122 58.2721 37.8373 51.0155 38.7927 51.0155C39.0794 51.0155 38.8883 50.3642 38.2195 49.62C36.4041 47.4802 36.6907 38.9211 38.6016 35.2927C41.7547 29.4316 47.7741 25.8963 54.749 25.8963C57.8065 25.8963 66.8834 29.4316 66.8834 30.641C66.8834 32.2226 73.7627 38.3629 75.6737 38.4559C77.9668 38.6419 81.2154 35.944 81.2154 33.8042C81.2154 31.5714 79.0178 27.4779 76.2469 24.5008C74.7182 22.9192 73.5717 21.3376 73.5717 20.9655C73.5717 20.5003 73.1895 20.4073 72.7117 20.7794C72.1385 21.0585 71.3741 20.5933 70.8963 19.756C70.4186 18.9187 69.7498 18.3605 69.3676 18.3605C69.081 18.4536 67.4567 17.8954 65.9279 17.0581C61.5328 14.8252 50.0672 14.3601 44.9077 16.2207Z" fill="white"/>
<path d="M49.3959 37.0603C47.6761 39.1071 47.1028 44.5031 48.7271 44.5031C49.3004 44.5031 49.6825 45.1543 49.6825 46.0847C49.6825 46.922 49.9692 47.3871 50.2558 47.015C50.9247 46.4568 67.3586 62.5517 70.7028 66.9243C72.136 68.785 72.4226 70.6456 72.2315 75.3904C72.136 78.8326 71.4671 82.1819 70.7983 83.0192C70.1295 83.8565 69.7473 84.5077 70.0339 84.5077C71.3716 84.5077 64.7789 89.9967 62.008 91.0201C58.4728 92.5087 50.3514 92.3226 47.3894 90.741C45.0008 89.3455 39.7457 84.5077 40.7012 84.5077C41.0834 84.5077 40.1279 83.3913 38.6947 82.0888C36.5927 80.2281 35.4461 79.763 33.153 80.2281C29.5222 80.9724 29.6178 80.7864 29.0445 84.6938C28.6623 87.0196 28.949 88.3221 30.0955 89.4385C30.9554 90.2758 31.3376 91.0201 30.9554 91.0201C30.4777 91.0201 32.0065 92.6947 34.204 94.7415C41.8477 101.905 50.0647 104.51 59.7149 102.928C66.6898 101.719 74.238 97.8116 77.2955 93.8111C78.6331 92.0435 80.0663 90.3689 80.353 90.0898C80.8307 89.7176 82.1683 86.4614 82.6461 84.5077C82.7416 84.2286 83.3149 82.1819 83.9837 79.856C85.5125 74.7391 83.9837 66.3661 80.4485 60.784C77.7732 56.5975 60.2882 39.6653 55.8931 36.9673C52.2623 34.7345 51.4024 34.7345 49.3959 37.0603Z" fill="white"/>
<path d="M11.4656 51.6667C10.1279 51.8528 8.50364 52.7831 7.83481 53.6204C7.16599 54.4577 6.30607 55.0159 6.01943 54.7368C5.63724 54.4577 4.20404 55.9463 2.6753 57.993C0.382186 61.2492 0.0955465 62.5517 0 69.0641C0 75.7625 0.191093 76.5998 2.86639 79.856C5.63724 83.2983 10.7968 86.3684 13.7587 86.3684C15.0963 86.3684 15.2874 84.2286 15.2874 68.6919C15.2874 58.9234 15.0008 51.1085 14.6186 51.1085C14.1409 51.2015 12.8032 51.4806 11.4656 51.6667Z" fill="white"/>
<path d="M93.6356 86.5545L96.6931 85.9963C99.9417 85.3451 106.057 81.2516 106.057 79.763C106.057 79.2048 106.726 78.1814 107.49 77.4372C108.445 76.4138 108.923 74.0879 108.923 69.6223C108.923 59.7607 104.623 53.7135 96.2154 51.5737L93.6356 51.0155V86.5545Z" fill="white"/>
<path d="M90.3862 85.5311C90.1952 86.2754 89.5263 88.5082 89.0486 90.5549C88.5709 92.6017 87.9976 94.9275 87.8065 95.6718C87.6154 96.4161 86.7555 97.5325 85.9911 98.1837C85.2267 98.835 84.8446 99.3932 85.2267 99.3932C85.5134 99.3932 84.2713 100.882 82.3603 102.835C77.7741 107.301 69.6527 111.115 63.06 111.953C56.4673 112.697 54.4608 113.255 54.4608 114.279C54.4608 115.86 57.7094 116.046 64.3021 114.651C72.4235 113.069 78.0608 110.557 82.647 106.557C85.8 103.859 90.6729 96.8812 91.1506 94.3693C91.3417 93.8111 91.7239 91.7644 92.2016 89.8107C92.6794 87.4848 92.5838 85.9032 91.915 85.252C91.1506 84.5077 90.6729 84.6008 90.3862 85.5311Z" fill="white"/>
<path d="M42.3272 112.139C38.9831 113.441 43.2827 118 47.7734 118C52.3596 117.907 55.7993 114.186 53.0285 112.232C51.9774 111.395 44.1426 111.395 42.3272 112.139Z" fill="white"/>
<path d="M327.873 79.1015C326.679 79.1015 325.824 78.9401 325.307 78.6174C324.823 78.2624 324.517 77.7944 324.387 77.2135C324.291 76.6326 324.242 76.0355 324.242 75.4223V58.5271C324.242 57.8816 324.307 57.2846 324.436 56.7359C324.565 56.1873 324.872 55.7516 325.356 55.4289C325.872 55.0739 326.727 54.8963 327.921 54.8963C329.051 54.8963 329.858 55.0577 330.342 55.3805C330.858 55.6709 331.181 56.0259 331.31 56.4455C331.439 56.8328 331.504 57.1716 331.504 57.4621L330.923 57.7526C330.987 57.6235 331.149 57.3975 331.407 57.0748C331.697 56.7198 332.085 56.3648 332.569 56.0098C333.053 55.6225 333.634 55.2998 334.312 55.0416C335.022 54.7834 335.828 54.6543 336.732 54.6543C337.087 54.6543 337.474 54.6866 337.894 54.7511C338.346 54.7834 338.798 54.8802 339.249 55.0416C339.733 55.1707 340.169 55.3643 340.556 55.6225C340.944 55.8484 341.25 56.1389 341.476 56.4939C341.734 56.8489 341.864 57.2846 341.864 57.801C341.864 59.1242 341.557 60.2538 340.944 61.1897C340.331 62.0933 339.556 62.5452 338.62 62.5452C338.071 62.5452 337.684 62.4968 337.458 62.3999C337.232 62.3031 337.039 62.2063 336.877 62.1095C336.748 62.0127 336.587 61.932 336.393 61.8674C336.2 61.7706 335.845 61.7222 335.328 61.7222C334.844 61.7222 334.376 61.7867 333.924 61.9158C333.505 62.0449 333.101 62.2547 332.714 62.5452C332.359 62.8034 332.069 63.1422 331.843 63.5618C331.649 63.9491 331.552 64.3848 331.552 64.8689V75.5191C331.552 76.1323 331.488 76.7294 331.358 77.3103C331.262 77.8589 330.955 78.2946 330.439 78.6174C329.922 78.9401 329.067 79.1015 327.873 79.1015Z" fill="white"/>
<path d="M310.252 79.5369C307.993 79.5369 306.04 79.1657 304.394 78.4235C302.781 77.6812 301.458 76.713 300.425 75.5188C299.392 74.2924 298.618 72.937 298.101 71.4524C297.617 69.9678 297.375 68.4832 297.375 66.9986C297.375 64.5781 297.924 62.4319 299.021 60.5601C300.118 58.6882 301.635 57.2198 303.572 56.1547C305.508 55.0574 307.735 54.5088 310.252 54.5088C312.124 54.5088 313.738 54.8154 315.093 55.4286C316.481 56.0095 317.61 56.7841 318.482 57.7523C319.386 58.6882 320.047 59.7048 320.467 60.8021C320.919 61.8994 321.144 62.9483 321.144 63.9488C321.144 65.7238 320.709 67.047 319.837 67.9184C318.998 68.7575 317.917 69.1771 316.594 69.1771H305.072C305.137 70.0162 305.427 70.7262 305.944 71.3071C306.492 71.8881 307.17 72.3399 307.977 72.6626C308.784 72.9854 309.639 73.1467 310.543 73.1467C311.317 73.1467 311.995 73.1145 312.576 73.0499C313.157 72.9531 313.657 72.8401 314.077 72.711C314.496 72.5497 314.883 72.4044 315.238 72.2754C315.593 72.114 315.9 71.9849 316.158 71.8881C316.449 71.7912 316.723 71.7267 316.981 71.6944C317.465 71.6622 317.901 71.8074 318.288 72.1301C318.708 72.4206 319.079 72.8724 319.402 73.4856C319.628 73.8406 319.773 74.1795 319.837 74.5022C319.934 74.825 319.983 75.1477 319.983 75.4704C319.983 76.245 319.579 76.9389 318.772 77.5521C317.998 78.1653 316.884 78.6494 315.432 79.0044C314.012 79.3594 312.285 79.5369 310.252 79.5369ZM305.072 65.2075H312.721C313.237 65.2075 313.609 65.1268 313.834 64.9654C314.093 64.7718 314.222 64.4168 314.222 63.9004C314.222 63.3195 314.044 62.8192 313.689 62.3997C313.334 61.9478 312.85 61.609 312.237 61.383C311.656 61.1249 310.978 60.9958 310.204 60.9958C309.203 60.9958 308.316 61.1894 307.541 61.5767C306.767 61.964 306.153 62.4803 305.702 63.1258C305.282 63.7713 305.072 64.4652 305.072 65.2075Z" fill="white"/>
<path d="M277.432 79.1026C276.109 79.1026 274.931 79.0219 273.898 78.8605C272.898 78.7315 272.027 78.4733 271.284 78.086C270.574 77.6987 269.993 77.1662 269.541 76.4884C269.09 75.8107 268.751 74.9393 268.525 73.8743C268.331 72.777 268.234 71.4376 268.234 69.8562V47.4907C268.234 46.8452 268.283 46.2482 268.38 45.6995C268.509 45.1509 268.831 44.699 269.348 44.344C269.864 43.989 270.703 43.8115 271.865 43.8115C273.027 43.8115 273.85 43.989 274.334 44.344C274.85 44.699 275.173 45.1509 275.302 45.6995C275.431 46.2482 275.496 46.8452 275.496 47.4907V69.5174C275.496 70.0337 275.512 70.4694 275.544 70.8244C275.609 71.1472 275.706 71.4054 275.835 71.599C275.996 71.7927 276.206 71.9217 276.464 71.9863C276.722 72.0508 277.061 72.0831 277.481 72.0831C277.868 72.0831 278.255 72.1315 278.643 72.2283C279.062 72.3252 279.417 72.6156 279.708 73.0997C279.998 73.5838 280.143 74.3907 280.143 75.5202C280.143 76.6821 279.998 77.5212 279.708 78.0376C279.417 78.554 279.062 78.8606 278.643 78.9574C278.255 79.0542 277.852 79.1026 277.432 79.1026Z" fill="white"/>
<path d="M292.112 79.1026C290.789 79.1026 289.611 79.0219 288.578 78.8605C287.578 78.7315 286.706 78.4733 285.964 78.086C285.254 77.6987 284.673 77.1662 284.221 76.4884C283.769 75.8107 283.43 74.9393 283.205 73.8743C283.011 72.777 282.914 71.4376 282.914 69.8562V47.4907C282.914 46.8452 282.962 46.2482 283.059 45.6995C283.188 45.1509 283.511 44.699 284.027 44.344C284.544 43.989 285.383 43.8115 286.545 43.8115C287.707 43.8115 288.53 43.989 289.014 44.344C289.53 44.699 289.853 45.1509 289.982 45.6995C290.111 46.2482 290.176 46.8452 290.176 47.4907V69.5174C290.176 70.0337 290.192 70.4694 290.224 70.8244C290.289 71.1472 290.385 71.4054 290.514 71.599C290.676 71.7927 290.886 71.9217 291.144 71.9863C291.402 72.0508 291.741 72.0831 292.16 72.0831C292.548 72.0831 292.935 72.1315 293.322 72.2283C293.742 72.3252 294.097 72.6156 294.387 73.0997C294.678 73.5838 294.823 74.3907 294.823 75.5202C294.823 76.6821 294.678 77.5212 294.387 78.0376C294.097 78.554 293.742 78.8606 293.322 78.9574C292.935 79.0542 292.532 79.1026 292.112 79.1026Z" fill="white"/>
<path d="M263.739 72.5182C264.739 73.3896 265.272 74.2287 265.336 75.0356C265.401 75.8101 264.965 76.7138 264.029 77.7465C263.319 78.4888 262.69 78.9729 262.141 79.1989C261.625 79.4248 261.109 79.4248 260.592 79.1989C260.076 79.0052 259.479 78.6018 258.801 77.9886L251.152 71.308V75.4713C251.152 76.1167 251.088 76.7138 250.959 77.2624C250.862 77.8111 250.555 78.2629 250.039 78.6179C249.555 78.9407 248.716 79.102 247.521 79.102C246.36 79.102 245.52 78.9407 245.004 78.6179C244.488 78.2629 244.165 77.8111 244.036 77.2624C243.939 76.6815 243.891 76.0683 243.891 75.4229V47.4901C243.891 46.8447 243.955 46.2476 244.084 45.699C244.213 45.1503 244.536 44.7146 245.052 44.3919C245.569 44.0369 246.408 43.8594 247.57 43.8594C248.732 43.8594 249.555 44.0369 250.039 44.3919C250.555 44.7146 250.862 45.1665 250.959 45.7474C251.088 46.296 251.152 46.8931 251.152 47.5386V62.1584L256.574 56.9301C257.22 56.3169 257.817 55.8974 258.365 55.6715C258.946 55.4456 259.511 55.4294 260.06 55.6231C260.608 55.8167 261.189 56.2524 261.802 56.9301C262.835 58.0597 263.335 58.9795 263.303 59.6895C263.271 60.3673 262.771 61.1902 261.802 62.1584L256.574 66.9027L263.739 72.5182Z" fill="white"/>
<path d="M236.228 79.0532C235.034 79.0532 234.147 78.8434 233.566 78.4239C233.017 78.0043 232.743 77.4879 232.743 76.8747L233.227 76.0518C233.033 76.3745 232.662 76.7779 232.113 77.262C231.565 77.7139 230.855 78.1334 229.983 78.5207C229.112 78.8757 228.031 79.0532 226.74 79.0532C225.255 79.0532 223.835 78.7305 222.48 78.085C221.157 77.4395 219.979 76.552 218.946 75.4224C217.913 74.2606 217.09 72.9535 216.477 71.5012C215.896 70.0489 215.605 68.5159 215.605 66.9022C215.605 65.3208 215.896 63.8201 216.477 62.4001C217.09 60.9478 217.913 59.673 218.946 58.5757C220.011 57.4461 221.205 56.5586 222.528 55.9131C223.851 55.2676 225.255 54.9449 226.74 54.9449C227.934 54.9449 228.951 55.1224 229.79 55.4774C230.629 55.8001 231.323 56.1874 231.871 56.6393C232.452 57.0911 232.888 57.5268 233.178 57.9463L232.791 57.2686C232.759 56.494 233.017 55.9131 233.566 55.5258C234.147 55.1063 235.05 54.8965 236.277 54.8965C237.438 54.8965 238.261 55.074 238.746 55.429C239.262 55.784 239.569 56.252 239.665 56.8329C239.794 57.4138 239.859 58.027 239.859 58.6725V75.374C239.859 75.9872 239.794 76.5843 239.665 77.1652C239.569 77.7461 239.262 78.2141 238.746 78.5691C238.261 78.8918 237.422 79.0532 236.228 79.0532ZM227.805 71.8401C228.644 71.8401 229.402 71.6303 230.08 71.2107C230.79 70.7589 231.339 70.1619 231.726 69.4196C232.146 68.6773 232.355 67.8543 232.355 66.9506C232.355 66.0147 232.146 65.1917 231.726 64.4817C231.307 63.7394 230.742 63.1585 230.032 62.7389C229.322 62.2871 228.547 62.0612 227.708 62.0612C226.772 62.0612 225.933 62.2871 225.191 62.7389C224.481 63.1908 223.9 63.7878 223.448 64.5301C223.028 65.2724 222.819 66.1115 222.819 67.0475C222.819 67.9188 223.028 68.7257 223.448 69.468C223.9 70.178 224.497 70.7589 225.239 71.2107C226.014 71.6303 226.869 71.8401 227.805 71.8401Z" fill="white"/>
<path d="M202.471 79.5388C200.212 79.5388 198.259 79.1677 196.613 78.4254C195 77.6831 193.676 76.7149 192.644 75.5208C191.611 74.2944 190.836 72.9389 190.32 71.4543C189.836 69.9698 189.594 68.4852 189.594 67.0006C189.594 64.5801 190.142 62.4339 191.24 60.562C192.337 58.6902 193.854 57.2217 195.79 56.1567C197.727 55.0594 199.954 54.5107 202.471 54.5107C204.343 54.5107 205.956 54.8173 207.312 55.4305C208.7 56.0115 209.829 56.786 210.701 57.7542C211.604 58.6902 212.266 59.7068 212.685 60.8041C213.137 61.9014 213.363 62.9503 213.363 63.9507C213.363 65.7258 212.927 67.049 212.056 67.9204C211.217 68.7595 210.136 69.1791 208.813 69.1791H197.291C197.356 70.0182 197.646 70.7282 198.162 71.3091C198.711 71.89 199.389 72.3419 200.196 72.6646C201.002 72.9873 201.858 73.1487 202.761 73.1487C203.536 73.1487 204.214 73.1164 204.795 73.0519C205.375 72.955 205.876 72.8421 206.295 72.713C206.715 72.5516 207.102 72.4064 207.457 72.2773C207.812 72.1159 208.119 71.9868 208.377 71.89C208.667 71.7932 208.942 71.7287 209.2 71.6964C209.684 71.6641 210.12 71.8093 210.507 72.1321C210.927 72.4225 211.298 72.8744 211.62 73.4876C211.846 73.8426 211.992 74.1814 212.056 74.5042C212.153 74.8269 212.201 75.1496 212.201 75.4724C212.201 76.2469 211.798 76.9408 210.991 77.554C210.217 78.1672 209.103 78.6513 207.651 79.0063C206.231 79.3613 204.504 79.5388 202.471 79.5388ZM197.291 65.2094H204.94C205.456 65.2094 205.827 65.1287 206.053 64.9674C206.311 64.7737 206.441 64.4187 206.441 63.9023C206.441 63.3214 206.263 62.8212 205.908 62.4016C205.553 61.9498 205.069 61.6109 204.456 61.385C203.875 61.1268 203.197 60.9977 202.422 60.9977C201.422 60.9977 200.534 61.1914 199.76 61.5786C198.985 61.9659 198.372 62.4823 197.92 63.1278C197.501 63.7732 197.291 64.4671 197.291 65.2094Z" fill="white"/>
<path d="M176.433 78.6659C174.852 78.6659 173.448 78.3593 172.222 77.7461C171.028 77.1007 170.027 76.2454 169.22 75.1804C168.446 74.0831 167.849 72.8244 167.429 71.4044C167.042 69.9844 166.864 68.4514 166.897 66.8054C166.897 65.224 167.106 63.7233 167.526 62.3033C167.945 60.8509 168.542 59.5761 169.317 58.4788C170.124 57.3493 171.108 56.4779 172.27 55.8647C173.464 55.2192 174.852 54.8965 176.433 54.8965C177.853 54.8965 179.225 55.2192 180.548 55.8647C181.904 56.5102 183.098 57.3977 184.131 58.5273C185.163 59.6246 185.97 60.8994 186.551 62.3517C187.164 63.804 187.471 65.337 187.471 66.9506C187.471 68.5643 187.164 70.0973 186.551 71.5496C185.97 72.9696 185.163 74.2122 184.131 75.2772C183.098 76.3422 181.92 77.1813 180.597 77.7945C179.273 78.3755 177.886 78.6659 176.433 78.6659ZM167.09 89.1225C165.928 89.1225 165.089 88.945 164.573 88.59C164.089 88.2673 163.782 87.8316 163.653 87.2829C163.556 86.7666 163.508 86.2018 163.508 85.5886V58.5273C163.508 57.8818 163.556 57.3009 163.653 56.7845C163.75 56.2358 164.04 55.784 164.524 55.429C165.041 55.074 165.88 54.8965 167.042 54.8965C168.042 54.8965 168.833 55.0417 169.414 55.3322C170.027 55.6226 170.463 56.0745 170.721 56.6877V85.5402C170.753 86.1534 170.705 86.7343 170.576 87.2829C170.447 87.8316 170.124 88.2673 169.608 88.59C169.123 88.945 168.284 89.1225 167.09 89.1225ZM175.417 71.8401C176.32 71.8401 177.127 71.6303 177.837 71.2107C178.547 70.7589 179.112 70.1619 179.532 69.4196C179.983 68.6773 180.209 67.8543 180.209 66.9506C180.209 66.0147 180 65.1917 179.58 64.4817C179.16 63.7394 178.596 63.1585 177.886 62.7389C177.176 62.3194 176.369 62.1096 175.465 62.1096C174.594 62.1096 173.787 62.3355 173.045 62.7874C172.335 63.2069 171.77 63.7878 171.35 64.5301C170.963 65.2401 170.769 66.047 170.769 66.9506C170.769 67.8543 170.979 68.6773 171.399 69.4196C171.818 70.1619 172.383 70.7589 173.093 71.2107C173.803 71.6303 174.578 71.8401 175.417 71.8401Z" fill="white"/>
<path d="M148.454 79.5859C146.743 79.5859 145.243 79.3761 143.952 78.9565C142.693 78.537 141.612 78.0367 140.708 77.4558C139.837 76.8426 139.143 76.2455 138.627 75.6646C138.11 75.0837 137.755 74.648 137.562 74.3575C137.013 73.6475 136.674 73.0343 136.545 72.518C136.416 71.9693 136.48 71.4207 136.739 70.872C137.029 70.3234 137.513 69.7263 138.191 69.0808C138.869 68.4999 139.498 68.1933 140.079 68.161C140.692 68.0965 141.289 68.2417 141.87 68.5967C142.451 68.9517 143.016 69.452 143.565 70.0974C144.339 71.0334 145.097 71.695 145.84 72.0823C146.614 72.4373 147.421 72.6148 148.26 72.6148C149.325 72.6148 150.229 72.4857 150.971 72.2275C151.714 71.9693 152.278 71.5659 152.666 71.0172C153.053 70.4363 153.247 69.7102 153.247 68.8388C153.247 68.1288 152.972 67.564 152.424 67.1444C151.907 66.6926 151.197 66.3053 150.294 65.9826C149.422 65.6598 148.438 65.3532 147.341 65.0628C146.275 64.74 145.21 64.3689 144.145 63.9493C143.403 63.6912 142.693 63.3684 142.015 62.9811C141.338 62.5939 140.692 62.1582 140.079 61.6741C139.466 61.19 138.933 60.609 138.481 59.9313C138.062 59.2535 137.723 58.479 137.465 57.6076C137.239 56.7362 137.126 55.7357 137.126 54.6062C137.126 52.702 137.594 51.0077 138.53 49.5231C139.466 48.0385 140.757 46.8767 142.403 46.0375C144.081 45.1662 146.001 44.7305 148.163 44.7305C149.616 44.7305 150.874 44.8596 151.939 45.1178C153.037 45.3759 153.957 45.6825 154.699 46.0375C155.441 46.3926 156.022 46.7476 156.442 47.1026C156.893 47.4253 157.2 47.6835 157.361 47.8771C158.265 48.7162 158.765 49.4424 158.862 50.0556C158.959 50.6365 158.62 51.4595 157.846 52.5245C157.039 53.6541 156.232 54.2834 155.425 54.4125C154.65 54.5416 153.763 54.2673 152.762 53.5895C152.375 53.2345 151.988 52.9118 151.601 52.6213C151.213 52.3309 150.745 52.105 150.197 51.9436C149.68 51.75 148.986 51.6531 148.115 51.6531C147.599 51.6531 147.115 51.7338 146.663 51.8952C146.211 52.0243 145.824 52.2179 145.501 52.4761C145.178 52.7343 144.92 53.057 144.726 53.4443C144.533 53.7993 144.436 54.2027 144.436 54.6546C144.436 55.3969 144.678 55.9939 145.162 56.4458C145.678 56.8976 146.34 57.2687 147.147 57.5592C147.986 57.8174 148.906 58.0756 149.906 58.3338C150.939 58.5597 151.988 58.834 153.053 59.1567C154.021 59.4795 154.957 59.8829 155.861 60.367C156.764 60.8188 157.571 61.3997 158.281 62.1098C158.991 62.8198 159.556 63.7073 159.976 64.7723C160.427 65.8373 160.653 67.1444 160.653 68.6935C160.653 70.63 160.282 72.292 159.54 73.6798C158.798 75.0676 157.813 76.1971 156.587 77.0685C155.36 77.9399 154.037 78.5692 152.617 78.9565C151.197 79.3761 149.809 79.5859 148.454 79.5859Z" fill="white"/>
</svg>
