<svg width="32" height="33" viewBox="0 0 32 33" fill="none" xmlns="http://www.w3.org/2000/svg">
<path d="M16 33.0018C17.0609 33.0018 18.0783 32.5803 18.8284 31.8302C19.5786 31.08 20 30.0626 20 29.0017H12C12 30.0626 12.4214 31.08 13.1716 31.8302C13.9217 32.5803 14.9391 33.0018 16 33.0018ZM17.99 3.19975C18.0179 2.92166 17.9872 2.6408 17.8999 2.3753C17.8126 2.10979 17.6707 1.86553 17.4832 1.65827C17.2957 1.451 17.0668 1.28534 16.8113 1.17196C16.5559 1.05858 16.2795 1 16 1C15.7205 1 15.4441 1.05858 15.1887 1.17196C14.9332 1.28534 14.7043 1.451 14.5168 1.65827C14.3293 1.86553 14.1874 2.10979 14.1001 2.3753C14.0128 2.6408 13.9821 2.92166 14.01 3.19975C11.7494 3.65955 9.71724 4.88647 8.25753 6.67275C6.79782 8.45903 6.00029 10.6949 6 13.0017C6 15.1978 5 25.0017 2 27.0017H30C27 25.0017 26 15.1978 26 13.0017C26 8.16175 22.56 4.12175 17.99 3.19975Z" fill="black"/>
</svg>
