<svg width="24" height="24" viewBox="0 0 24 24" fill="none" xmlns="http://www.w3.org/2000/svg">
<path d="M23.5 12C23.5 18.3513 18.3513 23.5 12 23.5C5.64873 23.5 0.5 18.3513 0.5 12C0.5 5.64873 5.64873 0.5 12 0.5C18.3513 0.5 23.5 5.64873 23.5 12Z" stroke="#ABABAB"/>
<path d="M15.9919 9.99176L15.5883 11.5165H8L8.41171 9.99176H15.9919ZM12.2139 19L8.23411 14.2033L8.22603 12.8846H10.1473C10.6155 12.8846 11.0003 12.7967 11.3017 12.6209C11.6085 12.4396 11.8372 12.1951 11.9879 11.8874C12.144 11.5797 12.222 11.2335 12.222 10.8489C12.222 10.4478 12.152 10.0934 12.0121 9.78571C11.8722 9.47253 11.6488 9.22802 11.3421 9.0522C11.0353 8.87637 10.629 8.78846 10.1231 8.78846H8.00807L8.46821 7H10.1231C11.0811 7 11.8776 7.14835 12.5126 7.44505C13.153 7.73626 13.632 8.16209 13.9495 8.72253C14.2725 9.27747 14.4339 9.9478 14.4339 10.7335C14.4339 11.4203 14.3209 12.0275 14.0949 12.5549C13.8742 13.0769 13.5163 13.5027 13.0212 13.8324C12.5261 14.1621 11.8749 14.3819 11.0676 14.4918L14.6761 18.8846V19H12.2139ZM16 7L15.5883 8.52473H9.34813L9.75984 7H16Z" fill="#ABABAB"/>
</svg>
