<svg width="470" height="160" viewBox="0 0 470 160" fill="none" xmlns="http://www.w3.org/2000/svg">
<path d="M450.93 107.326C449.302 107.326 448.136 107.107 447.432 106.667C446.772 106.183 446.354 105.545 446.178 104.753C446.046 103.961 445.98 103.147 445.98 102.311V79.2811C445.98 78.4012 446.068 77.5874 446.244 76.8395C446.42 76.0916 446.838 75.4977 447.498 75.0578C448.202 74.5739 449.368 74.3319 450.996 74.3319C452.535 74.3319 453.635 74.5519 454.295 74.9918C454.999 75.3877 455.439 75.8717 455.615 76.4436C455.791 76.9715 455.879 77.4334 455.879 77.8293L455.087 78.2253C455.175 78.0493 455.395 77.7413 455.747 77.3014C456.143 76.8175 456.671 76.3336 457.331 75.8497C457.991 75.3217 458.782 74.8818 459.706 74.5299C460.674 74.1779 461.774 74.002 463.006 74.002C463.49 74.002 464.018 74.0459 464.589 74.1339C465.205 74.1779 465.821 74.3099 466.437 74.5299C467.097 74.7058 467.691 74.9698 468.219 75.3217C468.747 75.6297 469.165 76.0256 469.473 76.5095C469.825 76.9935 470.001 77.5874 470.001 78.2913C470.001 80.095 469.583 81.6347 468.747 82.9105C467.911 84.1423 466.855 84.7582 465.579 84.7582C464.831 84.7582 464.303 84.6922 463.996 84.5602C463.688 84.4282 463.424 84.2963 463.204 84.1643C463.028 84.0323 462.808 83.9223 462.544 83.8343C462.28 83.7024 461.796 83.6364 461.092 83.6364C460.432 83.6364 459.794 83.7244 459.178 83.9003C458.606 84.0763 458.057 84.3623 457.529 84.7582C457.045 85.1101 456.649 85.5721 456.341 86.144C456.077 86.6719 455.945 87.2658 455.945 87.9257V102.443C455.945 103.279 455.857 104.093 455.681 104.885C455.549 105.633 455.131 106.227 454.427 106.667C453.723 107.107 452.557 107.326 450.93 107.326Z" fill="white"/>
<path d="M426.916 107.919C423.837 107.919 421.175 107.413 418.932 106.401C416.732 105.39 414.928 104.07 413.521 102.442C412.113 100.77 411.057 98.9226 410.353 96.899C409.693 94.8753 409.363 92.8516 409.363 90.8279C409.363 87.5285 410.111 84.603 411.607 82.0514C413.103 79.4998 415.17 77.4981 417.81 76.0464C420.449 74.5506 423.485 73.8027 426.916 73.8027C429.468 73.8027 431.668 74.2207 433.515 75.0565C435.407 75.8484 436.947 76.9042 438.135 78.224C439.366 79.4998 440.268 80.8856 440.84 82.3813C441.456 83.8771 441.764 85.3068 441.764 86.6706C441.764 89.0902 441.17 90.8939 439.982 92.0817C438.838 93.2256 437.365 93.7975 435.561 93.7975H419.856C419.944 94.9413 420.339 95.9091 421.043 96.701C421.791 97.4929 422.715 98.1088 423.815 98.5487C424.915 98.9886 426.081 99.2086 427.312 99.2086C428.368 99.2086 429.292 99.1646 430.084 99.0766C430.876 98.9446 431.558 98.7906 432.13 98.6147C432.701 98.3947 433.229 98.1967 433.713 98.0208C434.197 97.8008 434.615 97.6248 434.967 97.4929C435.363 97.3609 435.737 97.2729 436.089 97.2289C436.749 97.1849 437.343 97.3829 437.871 97.8228C438.443 98.2187 438.948 98.8346 439.388 99.6705C439.696 100.154 439.894 100.616 439.982 101.056C440.114 101.496 440.18 101.936 440.18 102.376C440.18 103.432 439.63 104.378 438.531 105.214C437.475 106.049 435.957 106.709 433.977 107.193C432.042 107.677 429.688 107.919 426.916 107.919ZM419.856 88.3863H430.282C430.986 88.3863 431.492 88.2764 431.8 88.0564C432.152 87.7924 432.328 87.3085 432.328 86.6046C432.328 85.8128 432.086 85.1309 431.602 84.559C431.118 83.9431 430.458 83.4811 429.622 83.1732C428.83 82.8213 427.906 82.6453 426.85 82.6453C425.487 82.6453 424.277 82.9092 423.221 83.4372C422.165 83.9651 421.329 84.669 420.713 85.5488C420.142 86.4287 419.856 87.3745 419.856 88.3863Z" fill="white"/>
<path d="M382.171 107.327C380.367 107.327 378.761 107.217 377.354 106.997C375.99 106.821 374.802 106.469 373.79 105.941C372.822 105.413 372.03 104.687 371.415 103.763C370.799 102.84 370.337 101.652 370.029 100.2C369.765 98.7042 369.633 96.8785 369.633 94.7229V64.2359C369.633 63.356 369.699 62.5422 369.831 61.7943C370.007 61.0464 370.447 60.4305 371.151 59.9466C371.854 59.4627 372.998 59.2207 374.582 59.2207C376.166 59.2207 377.288 59.4627 377.947 59.9466C378.651 60.4305 379.091 61.0464 379.267 61.7943C379.443 62.5422 379.531 63.356 379.531 64.2359V94.261C379.531 94.9648 379.553 95.5587 379.597 96.0427C379.685 96.4826 379.817 96.8345 379.993 97.0985C380.213 97.3624 380.499 97.5384 380.851 97.6264C381.203 97.7144 381.665 97.7584 382.237 97.7584C382.765 97.7584 383.293 97.8244 383.82 97.9564C384.392 98.0883 384.876 98.4843 385.272 99.1442C385.668 99.8041 385.866 100.904 385.866 102.444C385.866 104.027 385.668 105.171 385.272 105.875C384.876 106.579 384.392 106.997 383.82 107.129C383.293 107.261 382.743 107.327 382.171 107.327Z" fill="white"/>
<path d="M402.182 107.327C400.379 107.327 398.773 107.217 397.365 106.997C396.001 106.821 394.814 106.469 393.802 105.941C392.834 105.413 392.042 104.687 391.426 103.763C390.81 102.84 390.348 101.652 390.04 100.2C389.777 98.7042 389.645 96.8785 389.645 94.7229V64.2359C389.645 63.356 389.711 62.5422 389.843 61.7943C390.018 61.0464 390.458 60.4305 391.162 59.9466C391.866 59.4627 393.01 59.2207 394.594 59.2207C396.177 59.2207 397.299 59.4627 397.959 59.9466C398.663 60.4305 399.103 61.0464 399.279 61.7943C399.455 62.5422 399.543 63.356 399.543 64.2359V94.261C399.543 94.9648 399.565 95.5587 399.609 96.0427C399.697 96.4826 399.829 96.8345 400.005 97.0985C400.225 97.3624 400.511 97.5384 400.863 97.6264C401.215 97.7144 401.677 97.7584 402.248 97.7584C402.776 97.7584 403.304 97.8244 403.832 97.9564C404.404 98.0883 404.888 98.4843 405.284 99.1442C405.68 99.8041 405.878 100.904 405.878 102.444C405.878 104.027 405.68 105.171 405.284 105.875C404.888 106.579 404.404 106.997 403.832 107.129C403.304 107.261 402.754 107.327 402.182 107.327Z" fill="white"/>
<path d="M363.513 98.3527C364.876 99.5405 365.602 100.684 365.69 101.784C365.778 102.84 365.184 104.072 363.909 105.48C362.941 106.491 362.083 107.151 361.335 107.459C360.631 107.767 359.927 107.767 359.223 107.459C358.519 107.195 357.706 106.645 356.782 105.809L346.355 96.703V102.378C346.355 103.258 346.267 104.072 346.091 104.82C345.959 105.568 345.542 106.183 344.838 106.667C344.178 107.107 343.034 107.327 341.406 107.327C339.822 107.327 338.679 107.107 337.975 106.667C337.271 106.183 336.831 105.568 336.655 104.82C336.523 104.028 336.457 103.192 336.457 102.312V64.2363C336.457 63.3564 336.545 62.5426 336.721 61.7947C336.897 61.0468 337.337 60.4529 338.041 60.013C338.745 59.5291 339.888 59.2871 341.472 59.2871C343.056 59.2871 344.178 59.5291 344.838 60.013C345.542 60.4529 345.959 61.0688 346.091 61.8607C346.267 62.6086 346.355 63.4224 346.355 64.3023V84.231L353.746 77.1042C354.626 76.2683 355.44 75.6964 356.188 75.3885C356.98 75.0805 357.75 75.0585 358.497 75.3225C359.245 75.5864 360.037 76.1803 360.873 77.1042C362.281 78.6439 362.963 79.8977 362.919 80.8656C362.875 81.7894 362.193 82.9112 360.873 84.231L353.746 90.698L363.513 98.3527Z" fill="white"/>
<path d="M325.998 107.261C324.37 107.261 323.161 106.975 322.369 106.403C321.621 105.831 321.247 105.127 321.247 104.291L321.907 103.169C321.643 103.609 321.137 104.159 320.389 104.819C319.641 105.435 318.673 106.007 317.486 106.535C316.298 107.019 314.824 107.261 313.064 107.261C311.041 107.261 309.105 106.821 307.257 105.941C305.453 105.061 303.848 103.851 302.44 102.311C301.032 100.728 299.91 98.946 299.075 96.9663C298.283 94.9866 297.887 92.897 297.887 90.6973C297.887 88.5417 298.283 86.496 299.075 84.5604C299.91 82.5807 301.032 80.843 302.44 79.3472C303.892 77.8075 305.519 76.5977 307.323 75.7178C309.127 74.838 311.041 74.398 313.064 74.398C314.692 74.398 316.078 74.64 317.222 75.1239C318.365 75.5638 319.311 76.0917 320.059 76.7076C320.851 77.3235 321.445 77.9174 321.841 78.4894L321.313 77.5655C321.269 76.5097 321.621 75.7178 322.369 75.1899C323.161 74.618 324.392 74.332 326.064 74.332C327.648 74.332 328.77 74.574 329.43 75.0579C330.133 75.5418 330.551 76.1797 330.683 76.9716C330.859 77.7635 330.947 78.5993 330.947 79.4792V102.245C330.947 103.081 330.859 103.895 330.683 104.687C330.551 105.479 330.133 106.117 329.43 106.601C328.77 107.041 327.626 107.261 325.998 107.261ZM314.516 97.4282C315.66 97.4282 316.694 97.1423 317.617 96.5704C318.585 95.9545 319.333 95.1406 319.861 94.1288C320.433 93.117 320.719 91.9951 320.719 90.7633C320.719 89.4876 320.433 88.3657 319.861 87.3979C319.289 86.3861 318.519 85.5942 317.552 85.0223C316.584 84.4064 315.528 84.0984 314.384 84.0984C313.108 84.0984 311.964 84.4064 310.953 85.0223C309.985 85.6382 309.193 86.452 308.577 87.4639C308.005 88.4757 307.719 89.6195 307.719 90.8953C307.719 92.0831 308.005 93.1829 308.577 94.1948C309.193 95.1626 310.007 95.9545 311.019 96.5704C312.074 97.1423 313.24 97.4282 314.516 97.4282Z" fill="white"/>
<path d="M279.991 107.921C276.911 107.921 274.25 107.415 272.006 106.403C269.806 105.392 268.003 104.072 266.595 102.444C265.187 100.772 264.131 98.9246 263.427 96.9009C262.767 94.8772 262.438 92.8536 262.438 90.8299C262.438 87.5304 263.185 84.6049 264.681 82.0533C266.177 79.5018 268.245 77.5001 270.884 76.0483C273.524 74.5526 276.559 73.8047 279.991 73.8047C282.542 73.8047 284.742 74.2226 286.59 75.0585C288.481 75.8504 290.021 76.9062 291.209 78.226C292.441 79.5018 293.342 80.8875 293.914 82.3833C294.53 83.879 294.838 85.3088 294.838 86.6726C294.838 89.0922 294.244 90.8959 293.056 92.0837C291.913 93.2275 290.439 93.7994 288.635 93.7994H272.93C273.018 94.9432 273.414 95.9111 274.118 96.7029C274.865 97.4948 275.789 98.1107 276.889 98.5506C277.989 98.9906 279.155 99.2105 280.387 99.2105C281.442 99.2105 282.366 99.1665 283.158 99.0785C283.95 98.9466 284.632 98.7926 285.204 98.6166C285.776 98.3967 286.304 98.1987 286.788 98.0227C287.271 97.8028 287.689 97.6268 288.041 97.4948C288.437 97.3628 288.811 97.2748 289.163 97.2308C289.823 97.1869 290.417 97.3848 290.945 97.8248C291.517 98.2207 292.023 98.8366 292.463 99.6724C292.771 100.156 292.968 100.618 293.056 101.058C293.188 101.498 293.254 101.938 293.254 102.378C293.254 103.434 292.705 104.38 291.605 105.216C290.549 106.051 289.031 106.711 287.051 107.195C285.116 107.679 282.762 107.921 279.991 107.921ZM272.93 88.3883H283.356C284.06 88.3883 284.566 88.2783 284.874 88.0584C285.226 87.7944 285.402 87.3105 285.402 86.6066C285.402 85.8147 285.16 85.1328 284.676 84.5609C284.192 83.945 283.532 83.4831 282.696 83.1752C281.904 82.8232 280.98 82.6472 279.925 82.6472C278.561 82.6472 277.351 82.9112 276.295 83.4391C275.239 83.967 274.404 84.6709 273.788 85.5508C273.216 86.4306 272.93 87.3765 272.93 88.3883Z" fill="white"/>
<path d="M244.502 106.733C242.346 106.733 240.433 106.315 238.761 105.479C237.133 104.599 235.769 103.433 234.67 101.982C233.614 100.486 232.8 98.77 232.228 96.8343C231.7 94.8987 231.458 92.809 231.502 90.5654C231.502 88.4097 231.788 86.3641 232.36 84.4284C232.932 82.4487 233.746 80.711 234.802 79.2152C235.901 77.6755 237.243 76.4877 238.827 75.6518C240.455 74.772 242.346 74.332 244.502 74.332C246.438 74.332 248.307 74.772 250.111 75.6518C251.959 76.5317 253.586 77.7415 254.994 79.2812C256.402 80.777 257.502 82.5147 258.294 84.4944C259.13 86.474 259.547 88.5637 259.547 90.7633C259.547 92.963 259.13 95.0526 258.294 97.0323C257.502 98.968 256.402 100.662 254.994 102.113C253.586 103.565 251.981 104.709 250.177 105.545C248.373 106.337 246.482 106.733 244.502 106.733ZM231.766 120.986C230.182 120.986 229.038 120.744 228.335 120.261C227.675 119.821 227.257 119.227 227.081 118.479C226.949 117.775 226.883 117.005 226.883 116.169V79.2812C226.883 78.4014 226.949 77.6095 227.081 76.9056C227.213 76.1577 227.609 75.5418 228.269 75.0579C228.972 74.574 230.116 74.332 231.7 74.332C233.064 74.332 234.142 74.53 234.933 74.9259C235.769 75.3219 236.363 75.9378 236.715 76.7736V116.103C236.759 116.939 236.693 117.731 236.517 118.479C236.341 119.227 235.901 119.821 235.197 120.261C234.538 120.744 233.394 120.986 231.766 120.986ZM243.116 97.4282C244.348 97.4282 245.448 97.1423 246.416 96.5704C247.383 95.9545 248.153 95.1406 248.725 94.1288C249.341 93.117 249.649 91.9951 249.649 90.7633C249.649 89.4876 249.363 88.3657 248.791 87.3979C248.219 86.3861 247.449 85.5942 246.482 85.0223C245.514 84.4504 244.414 84.1644 243.182 84.1644C241.994 84.1644 240.895 84.4724 239.883 85.0883C238.915 85.6602 238.145 86.452 237.573 87.4639C237.045 88.4317 236.781 89.5315 236.781 90.7633C236.781 91.9951 237.067 93.117 237.639 94.1288C238.211 95.1406 238.981 95.9545 239.949 96.5704C240.917 97.1423 241.972 97.4282 243.116 97.4282Z" fill="white"/>
<path d="M206.364 107.987C204.033 107.987 201.987 107.701 200.227 107.129C198.512 106.557 197.038 105.875 195.806 105.083C194.618 104.247 193.672 103.434 192.968 102.642C192.265 101.85 191.781 101.256 191.517 100.86C190.769 99.8922 190.307 99.0563 190.131 98.3524C189.955 97.6045 190.043 96.8566 190.395 96.1088C190.791 95.3609 191.451 94.547 192.375 93.6672C193.298 92.8753 194.156 92.4574 194.948 92.4134C195.784 92.3254 196.598 92.5234 197.39 93.0073C198.182 93.4912 198.952 94.1731 199.699 95.0529C200.755 96.3287 201.789 97.2306 202.801 97.7585C203.857 98.2424 204.957 98.4844 206.1 98.4844C207.552 98.4844 208.784 98.3084 209.796 97.9565C210.808 97.6045 211.577 97.0546 212.105 96.3067C212.633 95.5149 212.897 94.525 212.897 93.3372C212.897 92.3694 212.523 91.5995 211.775 91.0276C211.072 90.4117 210.104 89.8838 208.872 89.4439C207.684 89.0039 206.342 88.586 204.847 88.1901C203.395 87.7501 201.943 87.2442 200.491 86.6723C199.479 86.3204 198.512 85.8804 197.588 85.3525C196.664 84.8246 195.784 84.2307 194.948 83.5708C194.112 82.9109 193.386 82.1191 192.771 81.1952C192.199 80.2714 191.737 79.2155 191.385 78.0277C191.077 76.8399 190.923 75.4762 190.923 73.9364C190.923 71.3408 191.561 69.0312 192.837 67.0075C194.112 64.9839 195.872 63.4001 198.116 62.2563C200.403 61.0685 203.021 60.4746 205.968 60.4746C207.948 60.4746 209.664 60.6506 211.116 61.0025C212.611 61.3545 213.865 61.7724 214.877 62.2563C215.889 62.7402 216.681 63.2242 217.253 63.7081C217.868 64.148 218.286 64.4999 218.506 64.7639C219.738 65.9077 220.42 66.8976 220.552 67.7334C220.684 68.5253 220.222 69.6471 219.166 71.0989C218.066 72.6386 216.967 73.4965 215.867 73.6724C214.811 73.8484 213.601 73.4745 212.237 72.5506C211.709 72.0667 211.182 71.6268 210.654 71.2308C210.126 70.8349 209.488 70.527 208.74 70.307C208.036 70.043 207.09 69.9111 205.902 69.9111C205.198 69.9111 204.539 70.021 203.923 70.241C203.307 70.417 202.779 70.6809 202.339 71.0329C201.899 71.3848 201.547 71.8247 201.283 72.3527C201.019 72.8366 200.887 73.3865 200.887 74.0024C200.887 75.0142 201.217 75.8281 201.877 76.444C202.581 77.0599 203.483 77.5658 204.583 77.9617C205.726 78.3137 206.98 78.6656 208.344 79.0176C209.752 79.3255 211.182 79.6995 212.633 80.1394C213.953 80.5793 215.229 81.1292 216.461 81.7891C217.692 82.405 218.792 83.1969 219.76 84.1647C220.728 85.1326 221.498 86.3424 222.07 87.7941C222.686 89.2459 222.994 91.0276 222.994 93.1393C222.994 95.7788 222.488 98.0445 221.476 99.9361C220.464 101.828 219.122 103.368 217.45 104.555C215.779 105.743 213.975 106.601 212.039 107.129C210.104 107.701 208.212 107.987 206.364 107.987Z" fill="white"/>
<path d="M25 69.5C18.3696 69.5 12.0107 72.0286 7.32233 76.5294C2.63392 81.0303 5.79649e-07 87.1348 0 93.5C-5.79649e-07 99.8652 2.63392 105.97 7.32233 110.471C12.0107 114.971 18.3696 117.5 25 117.5L25 93.5V69.5Z" fill="white"/>
<path d="M132 117.5C138.63 117.5 144.989 114.971 149.678 110.471C154.366 105.97 157 99.8652 157 93.5C157 87.1348 154.366 81.0303 149.678 76.5294C144.989 72.0286 138.63 69.5 132 69.5L132 93.5L132 117.5Z" fill="white"/>
<path fill-rule="evenodd" clip-rule="evenodd" d="M37.3872 27.8142C29.2189 38.4124 25.9993 51.18 26 59.4996C26.0002 61.9849 23.9857 63.9998 21.5004 64C19.0151 64.0002 17.0002 61.9857 17 59.5004C16.9991 49.3323 20.7943 34.6 30.2587 22.3201C39.8691 9.85085 55.2768 0 78 0C106.474 0 122.381 13.1863 130.937 27.4335C139.293 41.348 140.5 55.9774 140.5 59.5C140.5 61.9853 138.485 64 136 64C133.515 64 131.5 61.9853 131.5 59.5C131.5 57.0231 130.479 44.1525 123.221 32.0669C116.163 20.3139 103.071 9 78 9C58.2526 9 45.4095 17.4053 37.3872 27.8142Z" fill="white"/>
<path fill-rule="evenodd" clip-rule="evenodd" d="M65.4795 22.1657C74.0797 19.9968 82.4936 20.7653 87.3045 21.6143C92.2682 22.4903 97.2041 25.1487 101.337 28.0897C105.584 31.1119 109.617 34.8867 112.786 38.7278C115.422 41.9229 114.969 46.65 111.774 49.286C108.579 51.922 103.852 51.4687 101.216 48.2736C98.8848 45.448 95.818 42.5725 92.6402 40.3112C89.3482 37.9686 86.5341 36.7101 84.6977 36.3861C81.0086 35.735 74.9225 35.2539 69.1476 36.7103C63.6217 38.1038 58.7033 41.1372 55.8546 47.5468C49.9233 60.8922 57.1199 70.4887 61.8544 75.739L85.6307 98.0291C88.6525 100.862 88.8056 105.608 85.9727 108.63C83.1397 111.652 78.3934 111.805 75.3716 108.972L51.1529 86.2674L50.9514 86.0457C45.6793 80.2463 32.1612 63.9236 42.1474 41.4547C47.2987 29.8643 56.6303 24.3974 65.4795 22.1657Z" fill="white"/>
<path fill-rule="evenodd" clip-rule="evenodd" d="M91.7407 137.343C83.0415 139.499 74.5215 138.738 69.6955 137.886C64.4751 136.965 59.4239 133.85 55.4028 130.718C51.2031 127.447 47.2661 123.474 44.2136 119.774C41.5776 116.579 42.0309 111.852 45.226 109.216C48.4211 106.58 53.1482 107.033 55.7842 110.228C58.2317 113.195 61.3946 116.372 64.6199 118.884C68.0239 121.535 70.7227 122.836 72.3023 123.115C75.9762 123.763 82.2063 124.252 88.1322 122.784C93.8312 121.371 98.8216 118.309 101.645 111.955C107.566 98.6334 100.406 89.0473 95.6708 83.7909L71.4259 61.5252C68.375 58.7234 68.1731 53.979 70.9749 50.9282C73.7766 47.8774 78.5211 47.6755 81.5719 50.4772L106.321 73.2059L106.549 73.4562C111.821 79.2555 125.339 95.5783 115.353 118.047C110.176 129.693 100.667 135.131 91.7407 137.343Z" fill="white"/>
<path fill-rule="evenodd" clip-rule="evenodd" d="M128.53 115.5C129.634 115.517 130.516 116.425 130.5 117.53C130.409 123.587 127.733 133.063 120.159 141.292C112.535 149.576 100.063 156.473 80.6052 157.497C79.5021 157.555 78.5609 156.708 78.5028 155.605C78.4448 154.502 79.2919 153.561 80.3949 153.503C98.9371 152.527 110.382 146.008 117.216 138.583C124.1 131.103 126.424 122.58 126.5 117.47C126.517 116.366 127.425 115.484 128.53 115.5Z" fill="white"/>
<rect x="60" y="151.5" width="17" height="8" rx="3" fill="white"/>
</svg>
