<svg width="242" height="37" viewBox="0 0 242 37" fill="none" xmlns="http://www.w3.org/2000/svg">
<path d="M35.6397 1.92L27.8797 30H25.9197L18.2397 4.72L10.4397 30H8.55969L0.919688 1.92H2.83969L9.55969 27.48L17.2797 1.92H19.2797L26.9197 27.64L33.6797 1.92H35.6397ZM59.6681 17.68C59.6681 18.64 59.6415 19.36 59.5881 19.84H40.8281C40.8815 21.7867 41.3081 23.4267 42.1081 24.76C42.9081 26.0933 43.9615 27.0933 45.2681 27.76C46.5748 28.4267 48.0015 28.76 49.5481 28.76C51.6815 28.76 53.4681 28.24 54.9081 27.2C56.3481 26.1333 57.2548 24.6933 57.6281 22.88H59.5081C59.0815 25.0933 57.9881 26.8933 56.2281 28.28C54.4681 29.64 52.2415 30.32 49.5481 30.32C47.5215 30.32 45.7081 29.8667 44.1081 28.96C42.5081 28.0533 41.2548 26.76 40.3481 25.08C39.4415 23.3733 38.9881 21.3867 38.9881 19.12C38.9881 16.8533 39.4281 14.88 40.3081 13.2C41.2148 11.52 42.4681 10.24 44.0681 9.36C45.6681 8.45333 47.4948 8 49.5481 8C51.6281 8 53.4281 8.45333 54.9481 9.36C56.4948 10.24 57.6681 11.4267 58.4681 12.92C59.2681 14.3867 59.6681 15.9733 59.6681 17.68ZM57.8681 18.36C57.9481 16.44 57.6015 14.8133 56.8281 13.48C56.0815 12.1467 55.0548 11.16 53.7481 10.52C52.4415 9.85333 51.0281 9.52 49.5081 9.52C47.9881 9.52 46.5748 9.85333 45.2681 10.52C43.9881 11.16 42.9348 12.1467 42.1081 13.48C41.3081 14.8133 40.8815 16.44 40.8281 18.36H57.8681ZM66.9081 0.4V30H65.1081V0.4H66.9081ZM72.3866 19.12C72.3866 16.8533 72.8266 14.88 73.7066 13.2C74.6132 11.52 75.8532 10.24 77.4266 9.36C79.0266 8.45333 80.8532 8 82.9066 8C85.6266 8 87.8532 8.68 89.5866 10.04C91.3466 11.4 92.4399 13.2267 92.8666 15.52H90.9866C90.6399 13.6533 89.7332 12.1867 88.2666 11.12C86.8266 10.0533 85.0399 9.52 82.9066 9.52C81.3066 9.52 79.8532 9.88 78.5466 10.6C77.2399 11.2933 76.1866 12.3733 75.3866 13.84C74.6132 15.28 74.2266 17.04 74.2266 19.12C74.2266 21.2267 74.6132 23 75.3866 24.44C76.1866 25.88 77.2399 26.96 78.5466 27.68C79.8532 28.4 81.3066 28.76 82.9066 28.76C85.0399 28.76 86.8266 28.2267 88.2666 27.16C89.7332 26.0933 90.6399 24.6267 90.9866 22.76H92.8666C92.4399 25.0267 91.3466 26.8533 89.5866 28.24C87.8266 29.6267 85.5999 30.32 82.9066 30.32C80.8532 30.32 79.0266 29.8667 77.4266 28.96C75.8532 28.0533 74.6132 26.76 73.7066 25.08C72.8266 23.3733 72.3866 21.3867 72.3866 19.12ZM107.91 30.32C105.884 30.32 104.057 29.8667 102.43 28.96C100.804 28.0533 99.5236 26.76 98.5903 25.08C97.6836 23.3733 97.2303 21.3867 97.2303 19.12C97.2303 16.88 97.697 14.92 98.6303 13.24C99.5636 11.5333 100.844 10.24 102.47 9.36C104.124 8.45333 105.964 8 107.99 8C110.017 8 111.844 8.45333 113.47 9.36C115.097 10.24 116.364 11.52 117.27 13.2C118.204 14.88 118.67 16.8533 118.67 19.12C118.67 21.3867 118.204 23.3733 117.27 25.08C116.337 26.76 115.044 28.0533 113.39 28.96C111.764 29.8667 109.937 30.32 107.91 30.32ZM107.91 28.72C109.484 28.72 110.95 28.3733 112.31 27.68C113.697 26.96 114.804 25.88 115.63 24.44C116.457 23 116.87 21.2267 116.87 19.12C116.87 17.04 116.457 15.28 115.63 13.84C114.804 12.4 113.71 11.3333 112.35 10.64C110.99 9.92 109.524 9.56 107.95 9.56C106.377 9.56 104.91 9.92 103.55 10.64C102.217 11.3333 101.137 12.4 100.31 13.84C99.4836 15.28 99.0703 17.04 99.0703 19.12C99.0703 21.2267 99.4703 23 100.27 24.44C101.097 25.88 102.177 26.96 103.51 27.68C104.87 28.3733 106.337 28.72 107.91 28.72ZM149.812 7.84C152.292 7.84 154.318 8.64 155.892 10.24C157.465 11.8133 158.252 14.16 158.252 17.28V30H156.492V17.4C156.492 14.8133 155.865 12.84 154.612 11.48C153.385 10.0933 151.692 9.4 149.532 9.4C147.292 9.4 145.492 10.1733 144.132 11.72C142.772 13.2667 142.092 15.5067 142.092 18.44V30H140.332V17.4C140.332 14.8133 139.705 12.84 138.452 11.48C137.225 10.0933 135.532 9.4 133.372 9.4C131.132 9.4 129.332 10.1733 127.972 11.72C126.612 13.2667 125.932 15.5067 125.932 18.44V30H124.132V8.28H125.932V13C126.545 11.2933 127.532 10.0133 128.892 9.16C130.278 8.28 131.865 7.84 133.652 7.84C135.625 7.84 137.318 8.36 138.732 9.4C140.172 10.4133 141.158 11.92 141.692 13.92C142.198 11.92 143.185 10.4133 144.652 9.4C146.118 8.36 147.838 7.84 149.812 7.84ZM184.199 17.68C184.199 18.64 184.173 19.36 184.119 19.84H165.359C165.413 21.7867 165.839 23.4267 166.639 24.76C167.439 26.0933 168.493 27.0933 169.799 27.76C171.106 28.4267 172.533 28.76 174.079 28.76C176.213 28.76 177.999 28.24 179.439 27.2C180.879 26.1333 181.786 24.6933 182.159 22.88H184.039C183.613 25.0933 182.519 26.8933 180.759 28.28C178.999 29.64 176.773 30.32 174.079 30.32C172.053 30.32 170.239 29.8667 168.639 28.96C167.039 28.0533 165.786 26.76 164.879 25.08C163.973 23.3733 163.519 21.3867 163.519 19.12C163.519 16.8533 163.959 14.88 164.839 13.2C165.746 11.52 166.999 10.24 168.599 9.36C170.199 8.45333 172.026 8 174.079 8C176.159 8 177.959 8.45333 179.479 9.36C181.026 10.24 182.199 11.4267 182.999 12.92C183.799 14.3867 184.199 15.9733 184.199 17.68ZM182.399 18.36C182.479 16.44 182.133 14.8133 181.359 13.48C180.613 12.1467 179.586 11.16 178.279 10.52C176.973 9.85333 175.559 9.52 174.039 9.52C172.519 9.52 171.106 9.85333 169.799 10.52C168.519 11.16 167.466 12.1467 166.639 13.48C165.839 14.8133 165.413 16.44 165.359 18.36H182.399ZM203.608 9.84V24.2C203.608 25.8 203.902 26.9067 204.488 27.52C205.075 28.1067 206.115 28.4 207.608 28.4H210.048V30H207.328C205.435 30 204.035 29.56 203.128 28.68C202.248 27.7733 201.808 26.28 201.808 24.2V9.84H198.528V8.28H201.808V2.76H203.608V8.28H210.048V9.84H203.608ZM224.356 30.32C222.329 30.32 220.502 29.8667 218.876 28.96C217.249 28.0533 215.969 26.76 215.036 25.08C214.129 23.3733 213.676 21.3867 213.676 19.12C213.676 16.88 214.142 14.92 215.076 13.24C216.009 11.5333 217.289 10.24 218.916 9.36C220.569 8.45333 222.409 8 224.436 8C226.462 8 228.289 8.45333 229.916 9.36C231.542 10.24 232.809 11.52 233.716 13.2C234.649 14.88 235.116 16.8533 235.116 19.12C235.116 21.3867 234.649 23.3733 233.716 25.08C232.782 26.76 231.489 28.0533 229.836 28.96C228.209 29.8667 226.382 30.32 224.356 30.32ZM224.356 28.72C225.929 28.72 227.396 28.3733 228.756 27.68C230.142 26.96 231.249 25.88 232.076 24.44C232.902 23 233.316 21.2267 233.316 19.12C233.316 17.04 232.902 15.28 232.076 13.84C231.249 12.4 230.156 11.3333 228.796 10.64C227.436 9.92 225.969 9.56 224.396 9.56C222.822 9.56 221.356 9.92 219.996 10.64C218.662 11.3333 217.582 12.4 216.756 13.84C215.929 15.28 215.516 17.04 215.516 19.12C215.516 21.2267 215.916 23 216.716 24.44C217.542 25.88 218.622 26.96 219.956 27.68C221.316 28.3733 222.782 28.72 224.356 28.72ZM241.777 25.8L238.017 36.04H236.657L239.697 25.8H241.777Z" fill="white"/>
</svg>
